<svg width="160" height="72" viewBox="0 0 160 72" fill="none" xmlns="http://www.w3.org/2000/svg">
<g opacity="0.25">
<path fill-rule="evenodd" clip-rule="evenodd" d="M115.214 11.422C117.568 11.6004 119.928 11.9237 122.273 12.1984C124.178 12.4216 126.165 12.5704 128.034 12.9983C128.36 13.0716 128.68 13.1647 128.995 13.2776C129.309 13.3905 129.616 13.5223 129.914 13.6729C131.06 14.2627 132.039 15.3757 132.419 16.614C133.081 18.7762 132.984 27.4724 132.67 29.9224C132.56 30.7793 132.377 31.6658 131.967 32.4336C131.495 33.3181 130.841 33.7666 129.913 34.0606C130.188 35.5906 130.659 37.1144 131.015 38.6311C131.817 42.0439 132.433 45.3941 133.966 48.5707C131.611 48.1914 129.242 47.8231 126.905 47.3529L126.443 45.446C125.59 41.7532 124.862 38.0332 124.018 34.3385C123.319 34.2278 122.63 34.1453 121.924 34.0969C121.955 37.9043 121.577 43.4416 122.411 46.9942C120.042 46.5998 117.646 46.396 115.282 45.9787C115.912 43.6365 115.658 40.8161 115.655 38.4003L115.641 30.1269L115.61 19.2396C115.598 17.3659 115.649 15.4624 115.544 13.5929C115.502 12.8447 115.39 12.1498 115.214 11.422ZM121.96 17.7353C121.929 21.3554 122.133 25.0456 121.93 28.6541C123.214 28.7539 124.889 29.1144 125.985 28.2882C126.17 28.0081 126.327 27.7443 126.408 27.4147C126.732 26.089 126.747 21.5026 126.482 20.1198C126.369 19.5284 126.146 18.7951 125.621 18.44C124.697 17.8156 123.057 17.8331 121.96 17.7353Z" fill="#142841"/>
<path d="M75.5125 9.71514C77.9321 9.61035 80.3813 9.68986 82.8043 9.69853C84.6014 15.7548 86.5599 21.8055 88.1647 27.9134C88.2741 25.1345 88.1735 22.303 88.1739 19.5192C88.1743 16.9911 88.3123 14.3635 88.0691 11.8499C88.0003 11.1395 87.8584 10.5213 87.6224 9.84851C89.8859 9.92728 92.15 9.97561 94.4093 10.1446C93.9298 12.6053 94.0621 15.1187 94.0691 17.6132L94.084 26.0423L94.0857 36.1834C94.0877 38.2037 94.0259 40.2722 94.1647 42.2863C94.2184 43.0635 94.4589 43.8101 94.5812 44.5767C92.3309 44.4485 90.0708 44.398 87.8183 44.3203C86.8241 40.6629 85.5245 37.0733 84.3762 33.4618L82.7456 28.272C82.4983 27.4744 82.3083 26.6566 82.013 25.8754C82.1807 27.4886 82.1145 29.138 82.113 30.7584L82.1055 38.2334C82.104 40.2409 82.0819 42.1891 82.4465 44.174C80.1471 44.0453 77.8185 44.1104 75.5156 44.1174C75.8186 43.2157 75.969 42.328 76.0223 41.378C76.1163 39.6996 76.0501 37.9912 76.0508 36.3083V17.5715C76.0501 15.8385 76.1144 14.0814 76.0111 12.3524C75.9561 11.4306 75.8515 10.5785 75.5125 9.71514Z" fill="#142841"/>
<path d="M141.268 13.6731C141.534 13.6445 141.8 13.625 142.067 13.6144C144.959 13.5081 149.815 14.3565 151.957 16.3782C154.024 18.3292 154.029 20.9636 154.047 23.6099C154.046 24.9295 154.064 26.2488 154.102 27.5678C151.993 27.1972 149.882 26.8448 147.767 26.5106C147.716 24.9307 148.169 21.7567 147.036 20.5342C146.548 20.0077 145.829 19.7775 145.125 19.7738C144.641 19.7714 144.153 19.9398 143.808 20.2887C143.061 21.0452 143.027 22.3343 143.037 23.3374C143.046 24.229 143.126 25.1287 143.516 25.9444C144.491 27.988 148.882 31.13 150.658 32.8939C154.072 36.2823 154.162 38.4554 154.179 43.0254C154.188 45.397 154.452 48.9864 152.624 50.7718C151.342 52.0225 149.854 52.0568 148.183 52.0142C145.223 51.7384 141.501 51.0542 139.175 49.0429C135.512 45.8749 136.883 40.9556 136.547 36.7016C138.67 37.1953 140.85 37.4947 142.952 38.0606C142.907 39.7056 142.752 41.4643 142.945 43.0964C143.039 43.8961 143.323 44.6869 143.985 45.1857C144.54 45.6039 145.367 45.8111 146.053 45.7012C146.546 45.6222 146.958 45.3532 147.233 44.9356C147.771 44.1178 147.694 42.9877 147.686 42.0467C147.679 41.0793 147.736 39.9246 147.384 39.0103C146.955 37.8987 145.925 36.9816 145.066 36.1993C142.113 33.5106 137.623 30.6238 136.853 26.4416C136.503 24.5402 136.501 19.5624 136.905 17.6863C137.068 16.9279 137.371 16.1836 137.821 15.5503C138.679 14.3431 139.873 13.8965 141.268 13.6731Z" fill="#142841"/>
<path fill-rule="evenodd" clip-rule="evenodd" d="M66.3574 9.81122C67.1178 9.75699 67.8911 9.77916 68.6536 9.7751C68.4192 10.6362 68.3455 11.4237 68.3842 12.3155C68.4653 14.1739 68.7756 16.0437 69.0249 17.8858C69.4088 20.8116 69.8213 23.7333 70.2623 26.651C70.7108 29.8421 71.187 33.0291 71.6912 36.2118C72.1148 38.861 72.4089 41.6947 73.4726 44.1727C71.0299 44.1308 68.5832 44.2497 66.1404 44.2883C66.4041 42.2292 66.047 40.3743 65.7241 38.3495C64.9379 38.3672 61.0125 38.3633 60.6175 38.6869L60.5967 39.0256C60.3842 40.8991 60.1354 42.6034 60.6798 44.4434C58.1712 44.4823 55.6367 44.6635 53.1327 44.8308C54.1446 42.0663 54.4478 39.0956 54.8685 36.1942L56.2371 26.6905L57.4536 18.178C57.7051 16.4371 58.0222 14.6766 58.1636 12.9235C58.2399 11.9768 58.1823 11.0891 58.0373 10.152C60.7999 10.1202 63.5969 9.95548 66.3574 9.81122ZM63.3158 17.5676C62.5561 22.7651 62.0339 28.014 61.204 33.1972C61.8784 33.1483 62.5466 33.1064 63.2228 33.1066L65.3359 33.0868C65.0653 31.4599 63.5803 17.852 63.4168 17.6294L63.3158 17.5676Z" fill="#142841"/>
<path d="M10.9354 13.8678C11.3882 13.8121 11.8814 13.8178 12.3381 13.8176C13.7843 13.8171 15.2473 14.1421 16.2897 15.2244C18.0605 17.0634 17.8602 19.9805 17.8602 22.3409L17.8528 26.4118C15.7253 26.728 13.5442 27.1517 11.4492 27.6419C11.5654 26.1825 11.8425 21.6007 10.9742 20.4546C10.6528 20.0303 10.154 19.8682 9.64366 19.8165C8.94118 19.7453 8.21149 19.8791 7.66454 20.3511C6.97934 20.9424 6.7431 21.878 6.66993 22.7461C6.5302 24.3999 6.65356 26.1338 6.65706 27.7961C6.64554 30.9405 6.65154 34.0849 6.67507 37.2293C6.69419 39.3862 6.462 41.8185 6.65301 43.9294C6.70357 44.4873 6.8319 45.0612 7.22 45.4864C7.56637 45.8656 8.04124 46.0254 8.54407 46.0422C9.30133 46.0675 10.1676 45.8533 10.7179 45.3035C11.9629 44.0593 11.5233 39.9719 11.506 38.2347C13.057 38.0165 14.5958 37.6746 16.1318 37.3679L17.9219 37.0056C17.7445 40.5233 18.5711 45.4129 16.3708 48.3077C14.3038 51.027 9.72032 51.8348 6.49435 52.2484C4.92595 52.4495 3.12241 52.4513 1.8318 51.3939C0.753098 50.5099 0.29804 49.1244 0.152617 47.7797C-0.0450003 45.9527 0.0411872 44.0521 0.0408011 42.2147L0.0214601 26.093C0.0203018 24.478 -0.0784964 22.7889 0.157821 21.1897C0.357699 19.8374 0.826895 18.5315 1.69248 17.4617C3.84052 14.8073 7.73477 14.1886 10.9354 13.8678Z" fill="#142841"/>
<path d="M97.7729 10.2278C98.9944 10.3835 100.265 10.3346 101.496 10.4113C105.089 10.6351 108.766 10.7978 112.334 11.2632C112.09 13.3511 112.262 15.6039 112.276 17.7086C110.021 16.6962 106.892 16.7917 104.456 16.6725C104.506 19.3395 104.541 22.0391 104.461 24.7045C106.598 24.7156 108.663 25.1323 110.806 24.8593C110.791 26.9686 110.711 29.116 110.887 31.2194C108.781 30.8401 106.604 30.8058 104.475 30.6141C104.44 33.2335 104.49 35.8602 104.493 38.4804C104.479 38.6804 104.481 38.8289 104.529 39.0241C105.318 39.3189 109.699 39.4709 110.724 39.4428C111.306 39.427 111.867 39.3419 112.439 39.2418L112.445 45.9226C110.425 45.5852 108.331 45.5 106.289 45.3377C103.509 45.1169 100.716 44.8492 97.929 44.7846C98.3022 42.7676 98.1936 40.6434 98.1921 38.5991L98.1759 19.5369C98.175 17.295 98.2368 15.0326 98.1211 12.794C98.0755 11.9133 97.9709 11.0871 97.7729 10.2278Z" fill="#142841"/>
<path d="M50.5167 10.4728C50.6395 10.4568 50.763 10.4385 50.8866 10.43C51.0862 10.4166 51.296 10.3658 51.4513 10.4972C51.409 12.7422 51.419 14.987 51.4811 17.2316C49.1222 16.457 46.3005 16.8385 43.8684 17.177L43.8733 25.2071C45.8392 24.8612 47.8648 24.8643 49.8373 24.521C49.7002 26.5991 49.7134 28.7416 49.8653 30.8184C47.8525 30.7448 45.8767 30.9664 43.8717 31.0898L43.8678 39.642C46.4409 39.287 48.9543 39.2988 51.5126 38.7303C51.4855 40.6612 51.4951 42.5919 51.5416 44.5224L51.5523 44.8605C51.4942 44.9061 51.4482 44.9751 51.378 44.9976C51.0897 45.0895 48.2127 45.1961 47.5521 45.2507C44.1071 45.5508 40.666 45.8916 37.2289 46.2732C37.4865 45.2247 37.6203 44.1689 37.6751 43.0905C37.7692 41.2413 37.7088 39.3628 37.7069 37.5102L37.6942 19.4106C37.6878 17.0156 37.9137 13.919 37.2901 11.6324C38.8181 11.5902 40.3775 11.3721 41.9014 11.226C44.7768 10.9503 47.6341 10.6763 50.5167 10.4728Z" fill="#142841"/>
<path d="M27.4773 12.5732C27.7072 12.5313 27.5978 12.5165 27.8059 12.6139C27.898 13.1515 27.6641 13.8711 27.6207 14.4325C27.5451 15.3676 27.5074 16.3043 27.5075 17.2426L27.5121 41.2994C29.9541 40.8258 32.4368 40.5663 34.8702 40.0475L34.8658 46.4554C32.7128 46.6834 30.5687 47.0481 28.4291 47.3787C25.858 47.7777 23.2683 48.1799 20.7189 48.7003C20.8987 48.2321 21.042 47.7529 21.1488 47.2628C21.2556 46.7728 21.3248 46.2773 21.3561 45.7765C21.4913 43.9067 21.4446 42.0199 21.4455 40.1462L21.4453 21.7611C21.4446 19.0694 21.6832 16.1728 21.0227 13.5505C23.1827 13.3282 25.3333 12.9185 27.4773 12.5732Z" fill="#142841"/>
<path d="M35.1595 66.0599C35.3375 66.0431 35.5673 66.0032 35.742 66.0436C36.3615 66.1868 37.7909 68.7432 38.0956 69.3664C35.5099 69.2308 33.0063 68.7594 30.4637 68.3068C29.0659 68.0384 27.6714 67.5521 26.2516 67.439C28.7363 66.8004 32.5814 66.3399 35.1595 66.0599Z" fill="#142841"/>
<path d="M118.699 66.0001C119.845 66.1761 121.021 66.2335 122.174 66.3715C124.147 66.6084 126.098 66.9633 128.028 67.4362C126.871 67.562 125.754 67.8781 124.628 68.1602C122.268 68.6843 118.908 69.3717 116.505 69.3524C117.327 68.2851 117.952 67.118 118.699 66.0001Z" fill="#142841"/>
<path d="M58.9728 71.8349H57.1035L59.6975 66.0541H61.8385L64.4324 71.8349H62.5055L62.0691 70.753H59.4257L58.9728 71.8349ZM60.7515 67.5653L59.9774 69.4317H61.542L60.7844 67.5653H60.7515Z" fill="#142841"/>
<path d="M68.9596 72C68.3282 72 67.771 71.8761 67.2879 71.6284C66.8103 71.3751 66.4398 71.0311 66.1762 70.5961C65.9182 70.1557 65.7892 69.6602 65.7892 69.1096V66.0541H67.5597V69.1096C67.5597 69.5281 67.6859 69.8666 67.9385 70.1254C68.191 70.3842 68.5314 70.5135 68.9596 70.5135C69.3878 70.5135 69.7281 70.3842 69.9807 70.1254C70.2332 69.8666 70.3595 69.5281 70.3595 69.1096V66.0541H72.1299V69.1096C72.1299 69.6602 71.9982 70.1557 71.7347 70.5961C71.4766 71.0311 71.1061 71.3751 70.623 71.6284C70.1454 71.8761 69.5909 72 68.9596 72Z" fill="#142841"/>
<path d="M76.6153 72C76.1267 72 75.6902 71.9422 75.306 71.8266C74.9217 71.711 74.6087 71.5788 74.3672 71.4302C74.1311 71.2816 73.961 71.1467 73.8566 71.0255L74.7625 69.9355C74.8997 70.0731 75.1275 70.219 75.4459 70.3731C75.7644 70.5218 76.113 70.5961 76.4917 70.5961C76.7717 70.5961 76.9858 70.5521 77.1341 70.464C77.2823 70.3704 77.3564 70.263 77.3564 70.1419C77.3564 70.0098 77.2686 69.9024 77.0929 69.8198C76.9172 69.7373 76.6427 69.6437 76.2694 69.5391C75.8192 69.4124 75.4459 69.2858 75.1495 69.1592C74.8585 69.0326 74.6033 68.8481 74.3837 68.6059C74.1696 68.3636 74.0625 68.0498 74.0625 67.6644C74.0625 67.3066 74.1668 66.9928 74.3754 66.723C74.5895 66.4532 74.886 66.2468 75.2648 66.1036C75.6436 65.9605 76.08 65.8889 76.5741 65.8889C77.1011 65.8889 77.5925 65.9743 78.0481 66.1449C78.5038 66.3101 78.8496 66.4945 79.0857 66.6982L78.1799 67.7883C78.1305 67.7388 78.0316 67.6755 77.8834 67.5984C77.7352 67.5158 77.5595 67.4442 77.3564 67.3837C77.1533 67.3231 76.9447 67.2928 76.7306 67.2928C76.489 67.2928 76.2996 67.3286 76.1624 67.4002C76.0251 67.4662 75.9565 67.5543 75.9565 67.6644C75.9565 67.7801 76.0361 67.8764 76.1953 67.9535C76.36 68.025 76.6208 68.1131 76.9776 68.2177C77.4333 68.3444 77.812 68.4737 78.114 68.6059C78.4214 68.7325 78.6877 68.9224 78.9128 69.1757C79.1378 69.4234 79.2504 69.7455 79.2504 70.1419C79.2504 70.5163 79.1406 70.8439 78.921 71.1246C78.7069 71.4054 78.3995 71.6229 77.9987 71.777C77.6034 71.9257 77.1423 72 76.6153 72Z" fill="#142841"/>
<path d="M84.1918 71.8349H82.4214V67.5819H80.445V66.0541H86.1682V67.5819H84.1918V71.8349Z" fill="#142841"/>
<path d="M89.7101 71.8349H87.9396V66.0541H89.7101V71.8349Z" fill="#142841"/>
<path d="M93.7824 71.8349H92.0119V66.0541H93.5765L96.681 69.2748H96.7057V66.0541H98.4762V71.8349H96.9116L93.8071 68.6141H93.7824V71.8349Z" fill="#142841"/>
<path d="M73.6481 47.6331C80.6734 47.5333 87.693 47.6902 94.7067 48.1047C107.559 48.8166 120.404 50.2538 132.945 53.2434C132.009 55.1445 130.724 56.8953 129.842 58.8147C130.217 61.1876 130.608 63.5577 131.015 65.9251C114.682 62.3837 97.8158 60.936 81.1247 60.7073C65.0218 60.5988 48.7401 61.3835 32.8591 64.2034C29.9352 64.7226 26.5754 65.1735 23.7585 66.0393C24.3583 63.6508 24.5591 61.1531 25.0983 58.7424C23.9677 56.8984 22.962 54.9927 21.7917 53.1672C24.0629 52.4875 26.4617 52.0851 28.7936 51.6682C32.5044 51.0047 36.1902 50.44 39.9343 49.9993C45.5295 49.3178 51.1389 48.7797 56.7614 48.385C62.3837 47.9904 68.013 47.7401 73.6481 47.6331ZM35.1755 54.1379L35.5026 56.2092L32.5456 56.676L32.2175 54.6047L30.945 54.8059L31.7878 60.135L33.0612 59.9348L32.7204 57.7795L35.6774 57.3128L36.0182 59.468L37.2917 59.2669L36.4479 53.9378L35.1755 54.1379ZM120.322 57.8362L120.074 59.7473L121.352 59.9133L121.6 58.0022L124.443 54.8733L123.005 54.6868L121.143 56.7922L121.112 56.7883L119.875 54.2805L118.375 54.0862L120.322 57.8362ZM109.665 58.4661L110.947 58.595L111.133 56.7551L112.437 56.886L113.48 58.8499L114.939 58.9963L113.784 56.843C114.171 56.7425 114.477 56.5643 114.699 56.3079C114.927 56.0468 115.059 55.7343 115.095 55.3713C115.129 55.0341 115.073 54.7239 114.925 54.4407C114.778 54.1575 114.543 53.9219 114.221 53.7346C113.904 53.5478 113.512 53.4309 113.047 53.384L110.206 53.0979L109.665 58.4661ZM40.0856 53.5696L40.7585 58.9231L42.0368 58.7629L41.364 53.4094L40.0856 53.5696ZM44.7556 53.0403L45.3522 58.4026L49.7009 57.9202L49.5778 56.8088L46.5095 57.1497L46.0358 52.8987L44.7556 53.0403ZM101.694 53.4299L103.618 53.5745L103.298 57.8401L104.59 57.9378L104.911 53.6721L106.835 53.8157L106.919 52.7014L101.778 52.3157L101.694 53.4299ZM52.237 52.345L52.7038 57.72L57.0632 57.342L56.9665 56.2288L53.8913 56.4954L53.5202 52.2337L52.237 52.345ZM92.2507 57.1038L93.5378 57.1585L93.6882 53.6311L93.7194 53.6321L96.8151 57.2971L98.0095 57.3489L98.2399 51.9583L96.9518 51.9026L96.8015 55.4221L96.7712 55.4212L93.6755 51.7639L92.4802 51.7131L92.2507 57.1038ZM66.0974 51.3879C65.4295 51.4225 64.8424 51.5785 64.3366 51.8567C63.8359 52.1347 63.4552 52.4969 63.195 52.9426C62.9398 53.3828 62.8257 53.8593 62.8522 54.3723C62.8789 54.8855 63.0417 55.3511 63.3415 55.7678C63.6461 56.179 64.0619 56.4971 64.5886 56.7219C65.1205 56.9465 65.7206 57.0416 66.3884 57.0071C66.9792 56.9765 67.5008 56.8483 67.9528 56.6243C68.4044 56.3951 68.7719 56.1247 69.0544 55.8118L68.2126 55.0754C67.9377 55.3367 67.6492 55.5369 67.3474 55.676C67.0504 55.8097 66.7118 55.8858 66.3317 55.9055C65.9361 55.926 65.5747 55.8735 65.2487 55.7463C64.9277 55.6138 64.6703 55.4233 64.4772 55.176C64.284 54.9237 64.1789 54.6332 64.1618 54.3049C64.1448 53.9766 64.2192 53.6765 64.3854 53.4055C64.5517 53.1345 64.7885 52.919 65.0944 52.759C65.4052 52.5938 65.7585 52.5012 66.154 52.4807C66.5237 52.4616 66.8605 52.5059 67.1647 52.6135C67.474 52.7159 67.7818 52.8753 68.0866 53.0911L68.8405 52.2796C68.5274 52.0025 68.1395 51.7783 67.6774 51.6067C67.215 51.43 66.6881 51.3574 66.0974 51.3879ZM82.6852 54.2756C82.6796 54.779 82.7904 55.2327 83.0173 55.636C83.2443 56.0341 83.5705 56.3485 83.9948 56.5794C84.4244 56.805 84.9223 56.9217 85.488 56.928C86.0538 56.9343 86.5517 56.8288 86.9811 56.6126C87.4157 56.3913 87.7511 56.0846 87.987 55.6917C88.228 55.2936 88.3515 54.8425 88.3571 54.3391L88.3893 51.4485L87.0934 51.4338L87.0612 54.3245C87.0579 54.6225 86.9902 54.8867 86.8591 55.1165C86.728 55.341 86.5433 55.5161 86.3054 55.6419C86.0724 55.7677 85.8042 55.8288 85.5007 55.8254C85.1972 55.8221 84.9273 55.7554 84.6921 55.6243C84.4621 55.4933 84.2839 55.3136 84.1579 55.0862C84.0319 54.8536 83.971 54.5882 83.9743 54.2903L84.0065 51.3997L82.7175 51.386L82.6852 54.2756ZM75.4157 51.1907C74.7472 51.2056 74.156 51.3444 73.6423 51.6077C73.1336 51.8709 72.7426 52.2216 72.4694 52.6594C72.2013 53.0919 72.0732 53.5648 72.0847 54.0784C72.0962 54.5921 72.2455 55.0622 72.5329 55.4876C72.8253 55.9075 73.2318 56.2376 73.7516 56.4778C74.2766 56.7178 74.8732 56.8306 75.5417 56.8157C76.2101 56.8007 76.7987 56.6617 77.3073 56.3987C77.816 56.1355 78.2078 55.7874 78.4811 55.3547C78.7544 54.9169 78.8852 54.4407 78.8737 53.927C78.8622 53.4134 78.71 52.9466 78.4177 52.5266C78.1252 52.1015 77.7187 51.7688 77.1989 51.5286C76.6789 51.2883 76.0843 51.1757 75.4157 51.1907ZM112.915 54.4553C113.212 54.4852 113.438 54.5723 113.594 54.7171C113.756 54.8572 113.826 55.032 113.805 55.2415C113.784 55.4511 113.68 55.6116 113.493 55.7219C113.312 55.8275 113.073 55.865 112.776 55.8352L111.24 55.6809L111.38 54.301L112.915 54.4553ZM75.4401 52.2844C75.8361 52.2756 76.1924 52.3427 76.5095 52.4846C76.8316 52.6213 77.0863 52.8184 77.2722 53.0764C77.4579 53.3343 77.5548 53.6276 77.5622 53.9563C77.5696 54.2851 77.4854 54.5829 77.3112 54.8489C77.137 55.1096 76.8922 55.3179 76.5768 55.4739C76.2664 55.6247 75.9132 55.7052 75.5173 55.7141C75.1213 55.723 74.7622 55.6584 74.4401 55.5217C74.123 55.3798 73.871 55.1828 73.6852 54.9299C73.4994 54.672 73.4035 54.3779 73.3962 54.0491C73.3889 53.7205 73.4721 53.4234 73.6462 53.1575C73.8203 52.8915 74.0622 52.6824 74.3727 52.5315C74.6882 52.3754 75.0442 52.2933 75.4401 52.2844Z" fill="#142841"/>
<path d="M57.8155 6.3992L56.0477 6.49645L55.8154 2.24984L53.8421 2.3584L53.7586 0.832922L59.4731 0.518537L59.5566 2.04402L57.5832 2.15258L57.8155 6.3992Z" fill="#142841"/>
<path d="M70.0531 5.97283L64.6607 6.09366L64.532 0.314327L69.842 0.19534L69.8742 1.64017L66.3342 1.7195L66.3507 2.46255L69.0675 2.40168L69.0979 3.76395L66.3811 3.82483L66.3986 4.60916L70.0209 4.52799L70.0531 5.97283Z" fill="#142841"/>
<path d="M76.3872 5.78077H74.3368L76.6013 2.76651L74.5015 0L76.6096 2.5529e-09L77.8118 1.65991H77.8365L79.0388 5.49464e-09L81.0892 7.97776e-09L78.9894 2.76651L81.2539 5.78077H79.1458L77.7871 3.88138H77.7459L76.3872 5.78077Z" fill="#142841"/>
<path d="M86.3172 5.98317L84.4484 5.94138L87.1702 0.220038L89.3106 0.267906L91.7754 6.10524L89.849 6.06215L89.4367 4.97084L86.794 4.91174L86.3172 5.98317ZM88.1903 1.75449L87.375 3.60308L88.9392 3.63806L88.2233 1.75522L88.1903 1.75449Z" fill="#142841"/>
<path d="M97.5616 6.6054C97.0737 6.57858 96.6411 6.4969 96.2637 6.36036C95.8863 6.22382 95.581 6.07471 95.3479 5.91303C95.1204 5.75164 94.9578 5.60762 94.8602 5.48095L95.8242 4.44222C95.9537 4.58719 96.1733 4.74537 96.4828 4.91677C96.7926 5.08268 97.1366 5.17602 97.5148 5.19682C97.7944 5.21219 98.0106 5.17996 98.1634 5.10014C98.3165 5.01483 98.3964 4.9117 98.403 4.79076C98.4102 4.65882 98.3283 4.54681 98.1574 4.4547C97.9865 4.3626 97.7176 4.25408 97.3505 4.12914C96.908 3.97799 96.5421 3.83107 96.253 3.68836C95.9694 3.54595 95.7246 3.34778 95.5186 3.09384C95.318 2.84021 95.2282 2.52099 95.2493 2.13619C95.2688 1.77886 95.3901 1.47125 95.6131 1.21333C95.8416 0.955722 96.1489 0.765849 96.5349 0.643714C96.921 0.521579 97.3606 0.474072 97.854 0.501194C98.3802 0.530124 98.8662 0.642303 99.3118 0.83773C99.7578 1.02766 100.093 1.2308 100.318 1.44716L99.3537 2.48589C99.307 2.4337 99.2118 2.36506 99.068 2.27996C98.9245 2.18937 98.753 2.10826 98.5535 2.03664C98.354 1.96502 98.1474 1.92333 97.9336 1.91158C97.6924 1.89832 97.5013 1.92366 97.3604 1.98759C97.2197 2.04602 97.1464 2.13021 97.1404 2.24015C97.1341 2.3556 97.2083 2.45617 97.3631 2.54187C97.5236 2.62237 97.7792 2.72464 98.1298 2.84868C98.5778 3.00013 98.949 3.15011 99.2433 3.29861C99.5433 3.44193 99.7988 3.6462 100.01 3.91143C100.221 4.17116 100.316 4.49892 100.294 4.89473C100.274 5.26854 100.146 5.5896 99.9116 5.8579C99.6825 6.12651 99.3636 6.32678 98.9551 6.4587C98.5523 6.58543 98.0878 6.63433 97.5616 6.6054Z" fill="#142841"/>
<path d="M157.169 51.3612H156.726V50.298H156.232V49.916H157.663V50.298H157.169V51.3612Z" fill="#C4C4C4"/>
<path d="M158.549 51.3612H158.106V49.916H158.507L159.053 50.4817H159.059L159.605 49.916H160V51.3612H159.557V50.4941H159.551L159.053 51.0102L158.555 50.4941H158.549V51.3612Z" fill="#C4C4C4"/>
</g>
</svg>
